<svg width="17" height="17" viewBox="0 0 17 17" fill="none" xmlns="http://www.w3.org/2000/svg">
<g id="fluent:location-24-filled">
<g id="Group">
<path id="Vector" d="M12.8612 11.9581L12.0204 12.7897C11.4006 13.3974 10.5966 14.1794 9.60781 15.1357C9.31062 15.423 8.91339 15.5837 8.49998 15.5837C8.08658 15.5837 7.68935 15.423 7.39215 15.1357L4.91936 12.7302C4.6084 12.4249 4.34844 12.1678 4.13877 11.9581C3.27628 11.0955 2.68893 9.9966 2.451 8.80024C2.21306 7.60388 2.33522 6.36383 2.80203 5.2369C3.26885 4.10997 4.05935 3.14678 5.07357 2.46911C6.08779 1.79144 7.28019 1.42973 8.49998 1.42973C9.71977 1.42973 10.9122 1.79144 11.9264 2.46911C12.9406 3.14678 13.7311 4.10997 14.1979 5.2369C14.6647 6.36383 14.7869 7.60388 14.549 8.80024C14.311 9.9966 13.7237 11.0955 12.8612 11.9581ZM10.2708 7.79167C10.2708 7.32202 10.0842 6.8716 9.75215 6.5395C9.42005 6.20741 8.96964 6.02084 8.49998 6.02084C8.03033 6.02084 7.57991 6.20741 7.24781 6.5395C6.91572 6.8716 6.72915 7.32202 6.72915 7.79167C6.72915 8.26132 6.91572 8.71174 7.24781 9.04384C7.57991 9.37593 8.03033 9.5625 8.49998 9.5625C8.96964 9.5625 9.42005 9.37593 9.75215 9.04384C10.0842 8.71174 10.2708 8.26132 10.2708 7.79167Z" fill="white"/>
</g>
</g>
</svg>
