<svg width="28" height="28" viewBox="0 0 28 28" fill="none" xmlns="http://www.w3.org/2000/svg">
<g id="Notification">
<path id="Vector" d="M25.1186 16.8814L22.75 14.5128V11.375C22.7473 9.20661 21.9406 7.11624 20.4861 5.50811C19.0315 3.89998 17.0322 2.88832 14.875 2.66875V0.875H13.125V2.66875C10.9678 2.88832 8.96854 3.89998 7.51395 5.50811C6.05936 7.11624 5.25271 9.20661 5.25 11.375V14.5128L2.88137 16.8814C2.71727 17.0454 2.62505 17.268 2.625 17.5V20.125C2.625 20.3571 2.71719 20.5796 2.88128 20.7437C3.04538 20.9078 3.26794 21 3.5 21H9.625V21.875C9.625 23.0353 10.0859 24.1481 10.9064 24.9686C11.7269 25.7891 12.8397 26.25 14 26.25C15.1603 26.25 16.2731 25.7891 17.0936 24.9686C17.9141 24.1481 18.375 23.0353 18.375 21.875V21H24.5C24.7321 21 24.9546 20.9078 25.1187 20.7437C25.2828 20.5796 25.375 20.3571 25.375 20.125V17.5C25.375 17.268 25.2827 17.0454 25.1186 16.8814ZM16.625 21.875C16.625 22.5712 16.3484 23.2389 15.8562 23.7312C15.3639 24.2234 14.6962 24.5 14 24.5C13.3038 24.5 12.6361 24.2234 12.1438 23.7312C11.6516 23.2389 11.375 22.5712 11.375 21.875V21H16.625V21.875Z" fill="black"/>
<circle id="Ellipse 2" cx="22" cy="6" r="4.5" fill="#009FEE" stroke="#F8F8F8"/>
</g>
</svg>
